# xmcd
# 
# Track frame offsets:
#     225
#     29500
#     52042
#     69347
#     94450
#     111120
#     134430
#     152302
#     172050
#     190902
#     208580
# 
# Disc length: 3049
# 
# Revision: 6
# Processed by: cddbd v1.5.2PL0 Copyright (c) Steve Scherf et al.
# Submitted via: BonkEnc v1.0.5
# 
DISCID=9d0be60b
DTITLE=Meat Loaf - Blind before I stop
DYEAR=1986
DGENRE=Rock
TTITLE0=Execution Day
TTITLE1=Rock 'n' Roll Mercenaries
TTITLE2=Getting Away With Murder
TTITLE3=One More Kiss (Night Of The Soft Parade)
TTITLE4=Blind Before I Stop
TTITLE5=Burning Down
TTITLE6=Standing On The Outside
TTITLE7=Masculine
TTITLE8=A Man And A Woman
TTITLE9=Special Girl
TTITLE10=Rock 'n' Roll Hero
EXTD=
EXTT0=
EXTT1=
EXTT2=
EXTT3=
EXTT4=
EXTT5=
EXTT6=
EXTT7=
EXTT8=
EXTT9=
EXTT10=
PLAYORDER=
